<svg width="21" height="18" viewBox="0 0 21 18" fill="none" xmlns="http://www.w3.org/2000/svg">
<path d="M6.62517 17.1251C14.1705 17.1251 18.2986 10.8724 18.2986 5.45167C18.2986 5.27589 18.2947 5.0962 18.2869 4.92042C19.0899 4.33967 19.783 3.62033 20.3334 2.7962C19.5855 3.12896 18.7914 3.34627 17.9783 3.44074C18.8344 2.92755 19.4755 2.12135 19.7826 1.17159C18.9772 1.64892 18.0964 1.98563 17.1779 2.1673C16.5591 1.50976 15.7409 1.07439 14.8498 0.928498C13.9587 0.78261 13.0444 0.934331 12.2482 1.3602C11.4519 1.78607 10.8182 2.46238 10.4449 3.28455C10.0716 4.10672 9.97956 5.02897 10.183 5.9087C8.55212 5.82686 6.95665 5.40321 5.50003 4.6652C4.0434 3.9272 2.75812 2.89132 1.72751 1.62472C1.20371 2.52782 1.04342 3.59649 1.27923 4.61353C1.51504 5.63057 2.12926 6.51966 2.99705 7.10011C2.34556 7.07943 1.70835 6.90402 1.13806 6.58839V6.63917C1.13748 7.58691 1.46512 8.50561 2.0653 9.2391C2.66548 9.97258 3.50114 10.4756 4.43025 10.6626C3.82675 10.8277 3.19336 10.8518 2.57908 10.7329C2.84125 11.548 3.35135 12.2609 4.03818 12.7721C4.72501 13.2833 5.55431 13.5673 6.41033 13.5845C4.95706 14.726 3.16185 15.3452 1.31384 15.3423C0.986113 15.3418 0.658707 15.3217 0.333374 15.2821C2.21075 16.4866 4.39465 17.1263 6.62517 17.1251Z" fill="#333333"/>
</svg>
